<svg id="Layer_1" data-name="Layer 1" xmlns="http://www.w3.org/2000/svg" xmlns:xlink="http://www.w3.org/1999/xlink" viewBox="0 0 2076.64 485.33"><defs><style>.cls-1{fill:#68b42e;}.cls-2{fill:url(#linear-gradient);}.cls-3{fill:url(#linear-gradient-2);}.cls-4{fill:url(#linear-gradient-3);}.cls-5{fill:url(#linear-gradient-4);}</style><linearGradient id="linear-gradient" x1="-51.89" y1="450.43" x2="156.67" y2="94.53" gradientUnits="userSpaceOnUse"><stop offset="0.01" stop-color="#bed021"/><stop offset="0.51" stop-color="#97c21f"/><stop offset="1" stop-color="#68b42e"/></linearGradient><linearGradient id="linear-gradient-2" x1="-20.58" y1="468.78" x2="187.98" y2="112.87" xlink:href="#linear-gradient"/><linearGradient id="linear-gradient-3" x1="-25.95" y1="465.63" x2="182.61" y2="109.72" xlink:href="#linear-gradient"/><linearGradient id="linear-gradient-4" x1="61.76" y1="354.14" x2="254.45" y2="243.06" xlink:href="#linear-gradient"/></defs><path class="cls-1" d="M654.73,264.62q18.84-13,18.84-37.28,0-17.11-9-28.84t-24.76-16.73a44.35,44.35,0,0,0,24.5-40.57q0-22.12-18.05-35T594.54,93.25h-90.1V277.66H599.8Q635.89,277.66,654.73,264.62ZM546.85,125.39h42.42q15.79,0,24,5.4T621.41,147q0,10.8-8.17,16.33t-24,5.53H546.85Zm0,120.13V200h49.79q34,0,34,22.92,0,11.59-8.56,17.12t-25.43,5.53Z"/><path class="cls-1" d="M741.8,238.14h85.62l16.33,39.52h44.78L806.08,93.25H763.93L681.74,277.66h43.73Zm42.94-103L814,205.74H755.5Z"/><path class="cls-1" d="M942.54,268.57q22.92,12.26,51.63,12.25a135,135,0,0,0,39.78-6.06,111.28,111.28,0,0,0,34.78-17.39V182.56h-39v54a69.18,69.18,0,0,1-33.2,7.91q-17.38,0-30.95-7.51A54.06,54.06,0,0,1,944.38,216q-7.64-13.44-7.64-30.56,0-17.39,7.64-30.83a53,53,0,0,1,21.34-20.81q13.69-7.36,31.35-7.37,27.91,0,47.68,20.81l27.4-25.29A87.17,87.17,0,0,0,1039,98.26q-19.76-8.16-44-8.17-29,0-52.16,12.25a90.78,90.78,0,0,0-36.22,34q-13,21.72-13,49.13t13,49.13A91.1,91.1,0,0,0,942.54,268.57Z"/><path class="cls-1" d="M1245.1,266.2q23-11.46,35.83-32.27t12.77-48.47q0-27.66-12.77-48.48t-35.83-32.27Q1222,93.25,1192,93.25h-83.77V277.66H1192Q1222.05,277.66,1245.1,266.2Zm-94.18-23.58V128.29h39q27.66,0,44.12,15.41t16.47,41.76q0,26.34-16.47,41.75t-44.12,15.41Z"/><path class="cls-1" d="M1363.38,268.44q23,12.39,51.76,12.38t51.64-12.38a93.09,93.09,0,0,0,36.09-34.11Q1516,212.6,1516,185.46t-13.17-48.87a93.12,93.12,0,0,0-36.09-34.12q-22.92-12.37-51.64-12.38t-51.76,12.38a91.9,91.9,0,0,0-36.09,34.12q-13.05,21.74-13,48.87t13,48.87A91.87,91.87,0,0,0,1363.38,268.44ZM1365,154.9a53.88,53.88,0,0,1,20.68-21,61.79,61.79,0,0,1,59,0,54,54,0,0,1,20.68,21q7.5,13.44,7.51,30.56T1465.33,216A54,54,0,0,1,1444.65,237a61.71,61.71,0,0,1-59,0A53.92,53.92,0,0,1,1365,216q-7.51-13.44-7.51-30.56T1365,154.9Z"/><polygon class="cls-1" points="1590.33 165.7 1682.27 277.66 1717.31 277.66 1717.31 93.25 1675.16 93.25 1675.16 205.22 1583.48 93.25 1548.18 93.25 1548.18 277.66 1590.33 277.66 1590.33 165.7"/><polygon class="cls-1" points="1903.82 243.41 1803.45 243.41 1803.45 200.74 1889.07 200.74 1889.07 167.54 1803.45 167.54 1803.45 127.5 1900.4 127.5 1900.4 93.25 1761.04 93.25 1761.04 277.66 1903.82 277.66 1903.82 243.41"/><path class="cls-1" d="M2067,194.41a57.14,57.14,0,0,0-23-15.8,298.62,298.62,0,0,0-34.51-10q-20.3-4.48-30.17-9.09t-9.87-14.1q0-9.48,8.56-15.28t26.47-5.79q25.56,0,51.11,14.49l13.17-32.4a101.88,101.88,0,0,0-29.5-12.12,141.79,141.79,0,0,0-34.51-4.22q-25.29,0-42.81,7.64t-26.21,20.68a51.3,51.3,0,0,0-8.7,29.11q0,18.45,9.62,29.51a56.13,56.13,0,0,0,23.05,16.07,300.63,300.63,0,0,0,34.51,10q13.69,3.16,21.73,5.79a39.21,39.21,0,0,1,13.18,7,13.75,13.75,0,0,1,5.13,10.94q0,9-8.69,14.35t-26.87,5.4a106,106,0,0,1-32.67-5.26,98.24,98.24,0,0,1-28.19-14l-14.49,32.14q12.39,9.5,32.8,15.41a150.56,150.56,0,0,0,42.29,5.93q25.29,0,42.94-7.64t26.47-20.68a50.37,50.37,0,0,0,8.83-28.84Q2076.64,205.21,2067,194.41Z"/><path class="cls-1" d="M1118.08,402q-.51,10.77-12.82,10.39H746.84a44.41,44.41,0,0,0,.25-4.87V344.45H721.84V402q-.51,10.77-12.82,10.39H698.25a44.34,44.34,0,0,0,.26-4.87V344.45H673.38V402q-.51,10.77-12.82,10.39H647V344.45H621.72V402c-.09,1.12-.13,2.1-.13,2.95q-1.15,15-4.74,23.72-6.15,10.77-13.33,15.64-10,8.07-29.36,9.1-30.51-.65-45-28.07-5.65-13.47-5.64-33.59V369.44H499V403q1.66,31,18.33,51,19,22.18,55.13,24.36,41.91-1,61.14-28.72a45.4,45.4,0,0,0,8.59-15.38h29.23a6.9,6.9,0,0,0,1.41-.13v.13h47l2.69-.26v.26h393.55a35.27,35.27,0,0,0,13.59-3.33q13.57-6.68,13.59-23.46V344.45h-25.26Z"/><path class="cls-1" d="M1129,297.14a15.11,15.11,0,0,0-15.26,15.13,14.93,14.93,0,0,0,4.43,10.89,15.31,15.31,0,0,0,21.66,0,14.92,14.92,0,0,0,4.42-10.89,14.58,14.58,0,0,0-4.42-10.71A14.76,14.76,0,0,0,1129,297.14Z"/><path class="cls-1" d="M1204.23,342.65H1203q-22.44.64-33.08,13.21a42,42,0,0,0-7.82,13.84,44.31,44.31,0,0,0-2.56,14.49q1,28.07,8.46,36.53,11.79,13.72,32.82,13.72a54.73,54.73,0,0,0,20.63-3.72,19.9,19.9,0,0,1-4.48,9.87,23.41,23.41,0,0,1-17.31,7.31q-14.35,0-16-.26l-.26,16.92h17.05q21.28,0,33.2-9.48,13.34-12.31,13.34-30.13a45.45,45.45,0,0,0-.26-4.74l.26-20.9q.12-1.15.12-15.12-.9-17.19-9.1-26.67Q1223.07,342.66,1204.23,342.65Zm13.07,66.66q-3.72,4.62-6.92,5.64a21.79,21.79,0,0,1-6.8.9q-13.07,0-17.69-11-2.69-5.38-2.17-23.46a23.85,23.85,0,0,1,2.69-11.29,18.1,18.1,0,0,1,6-6.79q5.38-3.59,9.62-3.59a12.42,12.42,0,0,1,2.43-.26q13.2.27,16.92,15.39a26.72,26.72,0,0,1,1,7.18Q1222.43,403,1217.3,409.31Z"/><path class="cls-1" d="M1648.6,298.36A17.49,17.49,0,1,0,1661,293.3,16.84,16.84,0,0,0,1648.6,298.36Z"/><path class="cls-1" d="M1697.31,298.36a17.5,17.5,0,1,0,12.37-5.06A16.71,16.71,0,0,0,1697.31,298.36Z"/><path class="cls-1" d="M2037.22,454.82a14.78,14.78,0,0,0-10.77,4.42,15.32,15.32,0,0,0,0,21.67,15.26,15.26,0,0,0,26-10.84,15.21,15.21,0,0,0-15.25-15.25Z"/><path class="cls-1" d="M2034.27,390.21V402q-.52,10.77-12.82,10.39H1727.37q5-21.79,5-32.43a47.68,47.68,0,0,0-.89-9q-3.86-19.74-21.16-29.1a49.86,49.86,0,0,0-25.25-6.41q-12.43.39-19.74,2.95-12.69,4.36-21.28,16.79a41.72,41.72,0,0,0-6.28,22.44q0,10.13,5.89,34.61h-30.38v.13H1351.9v-1q0-15.37-1.15-22.43-1.55-9.36-3.59-13.72a49.13,49.13,0,0,0-10-14.48q-7.19-6.8-19.74-11.41a93.1,93.1,0,0,0-30.38-4.87,67.62,67.62,0,0,0-7.31.38v19.1c2.22-.08,4.36-.13,6.41-.13a84.19,84.19,0,0,1,15,1.16q13.33,2.69,21.66,14.74a27.8,27.8,0,0,1,4.36,15.13q0,15.51-.51,17.56h-68.71v21.92h355.34v.26h71.28c2.56,0,5-.09,7.3-.26h340.48a35.27,35.27,0,0,0,13.59-3.33q13.59-6.68,13.59-23.46V344.45h-25.25ZM1698.15,408.8q-4.87,5-9.88,5.9a24.87,24.87,0,0,1-4.48.38q-16.92,0-20.13-29.48a28.93,28.93,0,0,1-.51-5.39,26.36,26.36,0,0,1,6.41-17.82q6.4-7.42,15-6.92,17,.76,20.25,19.61c.09,1.2.13,2.31.13,3.34Q1704.94,389.19,1698.15,408.8Z"/><path class="cls-2" d="M334.35,135.86c-.29-.32-.55-.63-.84-.93s-.52-.55-.77-.82a31.25,31.25,0,0,0-3.19-2.82c-.33-.26-.68-.53-1-.77a11.51,11.51,0,0,0-1.23-.83,13.77,13.77,0,0,0-1.25-.79l-.18-.11c-.41-.25-.83-.49-1.26-.71s-.85-.45-1.27-.66l-1.29-.61c-.43-.21-.87-.4-1.31-.57a.73.73,0,0,1-.22-.09c-1.24-.51-2.5-1-3.76-1.34-.46-.16-.9-.29-1.34-.4-.84-.25-1.65-.45-2.47-.63l-.18,0-.15,0c-.44-.11-.88-.21-1.31-.29l-1.29-.25c-.44-.09-.88-.16-1.32-.22-.87-.14-1.73-.27-2.58-.36-.43-.07-.85-.11-1.26-.14-.82-.1-1.64-.16-2.43-.21l-1.15-.08a26.37,26.37,0,0,0-1-6.53,6.91,6.91,0,0,0-.3-1,18.14,18.14,0,0,0-4.47-7.4c-.25-.26-.52-.52-.79-.75a8.41,8.41,0,0,0-.85-.71,6.31,6.31,0,0,0-.58-.44s-.05,0-.06,0a6.81,6.81,0,0,0-.79-.53c-.36-.24-.72-.46-1.1-.68a.3.3,0,0,0-.11-.06c-.44-.24-.88-.46-1.34-.66s-.93-.4-1.4-.57c0,0,0,0,0,0-.49-.17-1-.33-1.48-.47-6.27-1.72-14.22-.79-24,2.8l-1.68.63-1.7.69c-.58.24-1.16.47-1.75.73L256,108a68.21,68.21,0,0,0-60.68-37.12H65.64A167.67,167.67,0,0,0,70.16,87.7a35.07,35.07,0,0,0-3.53,3.67c-6.77,8.14-9.51,18.77-10.53,27.68-6.79-2.77-14.55-4-21.13.37-7.18,4.77-9,13.57-9.07,21.41A236.07,236.07,0,0,1,5.37,82.71Q4.13,76.82,3.2,70.84A237.54,237.54,0,0,1,.75,21a22.1,22.1,0,0,1,22-21H195.36C271,0,332.66,60.66,334.35,135.86Z"/><path class="cls-3" d="M114.3,238.72l-.07.05-.09,0Z"/><path class="cls-4" d="M115.59,225.72l-2.3.67c.28-.33.57-.64.83-1A12.31,12.31,0,0,1,115.59,225.72Z"/><path class="cls-5" d="M372.18,346.27a139.06,139.06,0,0,1-139,139.06H22.06a22,22,0,0,1-22-22C0,447,0,430,.1,414.49c0-1.61.06-9.84.11-13.67.21-16.1.44-28.05.46-28.88,1.08-45.47,11.82-97.59,50.81-125.84A104.55,104.55,0,0,1,84,230.36c1.53-.44,4.31-1.24,7.65-2.08-9.18-6.34-30.82-23.8-46.82-56.28a171.29,171.29,0,0,1-8.06-19.23S26,106.69,65.34,135.4c0,0-2.69-24.13,8.36-37.76,4-4.88,9.68-8.41,17.91-9,0,0,18.7-2.73,28.37,39.35,0,0,34.08-49.41,28.21,21.19,0,0-2.66,39.48-34.07,76.26-.26.33-.55.64-.83,1l2.3-.67,14.75-4.39s25.68-109.53,98.5-118c0,0,12.2,3.34,5.89,27.57a183.78,183.78,0,0,1,25-14.23c17.41-7.89,36.6-11.43,31.13,15.16,0,0,31.79-3.94,39.8,16.16,0,0,10.16,16.27-19.06,41.27,0,0,6.23,3.68,9.6,9,3.78,5.89,4,13.76-12,20.7-7.7,3.35-19.15,6.47-35.74,9,0,0,49.1,38.81-45.61,40.26,0,0-29.06,3.85-82.91-28.43-3.12-1.86-6.31-3.86-9.59-6l-21.06,4.91-.16,0,.09,0a177.76,177.76,0,0,1,30.72,8c16.62,5.88,36.82,15.62,52.15,31.35A83,83,0,0,1,213.63,302s2,16.35-27.91,7.91c0,0,18.77,42.91-2.78,50.75,0,0-20.23,14-44.93-20.84,0,0-13.57,63.57-40.76-23.43-4.71-15.08-3.64-31.45-1-46.83,1.06-6.22,4.74-15.11,5.58-23.11-4.71,2.52-9,4.69-10.75,6.28C80,262.59,72.48,276.25,68.44,290.44c-7.72,27-5.43,56.84-6.25,84.58-.14,5-.43,14.09-.58,26.43-.08,5.48-.1,10-.11,13H233.14a68.2,68.2,0,0,0,9-135.81V277.1c2.34-.16,4.6-.33,6.78-.53s4.05-.43,6-.68l2.82-.41c.93-.14,1.84-.28,2.72-.44s1.77-.3,2.63-.47,1.69-.35,2.5-.54c1.64-.36,3.22-.74,4.73-1.16.74-.21,1.48-.43,2.18-.65s1.42-.46,2.1-.69,1.34-.47,2-.73a39.94,39.94,0,0,0,3.68-1.59c1.17-.56,2.25-1.14,3.28-1.76.5-.3,1-.61,1.49-.94,1-.65,1.84-1.33,2.68-2a22.39,22.39,0,0,0,5.24-6.28,17.61,17.61,0,0,0,1.09-2.17c.19-.46.36-.92.52-1.39,2.51-7.43.3-14.59-3.17-20.43.8-.17,1.61-.36,2.38-.55l.79-.19c1-.24,2-.49,3-.76q.76-.18,1.5-.39c.72-.19,1.45-.39,2.14-.6s1.37-.39,2.05-.61c.89-.27,1.78-.55,2.63-.84s1.68-.56,2.48-.86A139,139,0,0,1,372.18,346.27Z"/></svg>