<svg id="Layer_1" data-name="Layer 1" xmlns="http://www.w3.org/2000/svg" xmlns:xlink="http://www.w3.org/1999/xlink" viewBox="0 0 582.67 759.81"><defs><style>.cls-1{fill:url(#linear-gradient);}.cls-2{fill:url(#linear-gradient-2);}.cls-3{fill:url(#linear-gradient-3);}.cls-4{fill:url(#linear-gradient-4);}</style><linearGradient id="linear-gradient" x1="-81.23" y1="705.18" x2="245.28" y2="147.98" gradientUnits="userSpaceOnUse"><stop offset="0.01" stop-color="#bed021"/><stop offset="0.51" stop-color="#97c21f"/><stop offset="1" stop-color="#68b42e"/></linearGradient><linearGradient id="linear-gradient-2" x1="-32.22" y1="733.9" x2="294.29" y2="176.7" xlink:href="#linear-gradient"/><linearGradient id="linear-gradient-3" x1="-40.63" y1="728.98" x2="285.88" y2="171.78" xlink:href="#linear-gradient"/><linearGradient id="linear-gradient-4" x1="96.68" y1="554.42" x2="398.35" y2="380.52" xlink:href="#linear-gradient"/></defs><path class="cls-1" d="M523.44,212.7c-.44-.5-.86-1-1.3-1.46s-.82-.86-1.21-1.28a47.2,47.2,0,0,0-5-4.41c-.51-.42-1.06-.84-1.6-1.21A19.67,19.67,0,0,0,512.4,203c-.64-.44-1.31-.86-2-1.23l-.27-.17c-.64-.4-1.31-.77-2-1.11s-1.34-.71-2-1l-2-1c-.67-.32-1.36-.61-2.05-.88a1,1,0,0,1-.34-.15c-1.95-.79-3.92-1.48-5.89-2.1-.72-.24-1.41-.44-2.1-.61-1.3-.4-2.58-.72-3.87-1l-.27-.07a1.57,1.57,0,0,1-.25-.05c-.68-.17-1.37-.32-2-.45s-1.33-.27-2-.39-1.38-.25-2.07-.34c-1.36-.23-2.71-.42-4-.57-.67-.1-1.33-.17-2-.22-1.29-.15-2.57-.25-3.8-.32-.62,0-1.21-.1-1.8-.13A41,41,0,0,0,470.11,181a11.61,11.61,0,0,0-.47-1.52,28.45,28.45,0,0,0-7-11.59c-.39-.42-.81-.81-1.23-1.18s-.87-.76-1.33-1.11c-.3-.25-.59-.47-.91-.69l-.1-.07a14.22,14.22,0,0,0-1.24-.84c-.56-.37-1.13-.72-1.72-1.06a.75.75,0,0,0-.17-.1c-.69-.37-1.38-.71-2.1-1s-1.45-.62-2.19-.89c0,0,0,0,0,0-.77-.27-1.53-.52-2.32-.74-9.81-2.69-22.25-1.23-37.61,4.39l-2.64,1-2.66,1.09c-.91.37-1.82.74-2.73,1.13s-1.85.81-2.79,1.23a106.79,106.79,0,0,0-95-58.11H102.76a266,266,0,0,0,7.07,26.39,55.75,55.75,0,0,0-5.52,5.75c-10.6,12.74-14.89,29.37-16.49,43.32C77.2,182,65.05,180.14,54.75,187c-11.24,7.47-14.17,21.25-14.2,33.52a369.42,369.42,0,0,1-32.14-91Q6.46,120.25,5,110.91A371.94,371.94,0,0,1,1.17,32.83,34.62,34.62,0,0,1,35.64,0h270.2C424.22,0,520.8,95,523.44,212.7Z"/><path class="cls-2" d="M178.94,373.73s-.08,0-.1.08l-.15,0Z"/><path class="cls-3" d="M181,353.37l-3.6,1.06c.45-.51.89-1,1.31-1.52A20.59,20.59,0,0,1,181,353.37Z"/><path class="cls-4" d="M582.67,542.11A217.69,217.69,0,0,1,365,759.81H34.54A34.49,34.49,0,0,1,0,725.41c-.07-25.56,0-52.23.13-76.5,0-2.52.1-15.41.17-21.4C.65,602.3,1,583.59,1,582.29c1.7-71.18,18.51-152.78,79.56-197a163.8,163.8,0,0,1,50.92-24.64c2.39-.69,6.75-1.95,12-3.26-14.37-9.93-48.26-37.26-73.3-88.11a269.33,269.33,0,0,1-12.62-30.11S40.65,167,102.29,212c0,0-4.21-37.78,13.09-59.13,6.18-7.64,15.15-13.16,28-14.12,0,0,29.28-4.26,44.42,61.62,0,0,53.35-77.37,44.16,33.17,0,0-4.16,61.81-53.33,119.39-.42.51-.86,1-1.31,1.52l3.6-1.06,23.09-6.87S244.25,175,358.26,161.73c0,0,19.1,5.22,9.22,43.15a287.92,287.92,0,0,1,39.21-22.28C434,170.25,464,164.71,455.44,206.34c0,0,49.76-6.17,62.31,25.31,0,0,15.89,25.46-29.85,64.6,0,0,9.76,5.76,15,14,5.91,9.22,6.21,21.54-18.86,32.41-12.05,5.25-30,10.13-55.94,14.17,0,0,76.87,60.76-71.4,63,0,0-45.5,6-129.82-44.51-4.88-2.9-9.88-6-15-9.34l-33,7.69-.25,0,.15,0a276,276,0,0,1,48.08,12.47c26,9.19,57.65,24.45,81.66,49.07a130.32,130.32,0,0,1,25.88,37.41s3.1,25.58-43.7,12.37c0,0,29.38,67.19-4.36,79.46,0,0-31.67,21.94-70.34-32.63,0,0-21.25,99.52-63.81-36.67-7.37-23.61-5.7-49.25-1.6-73.33,1.65-9.73,7.41-23.66,8.72-36.18-7.37,4-14.05,7.35-16.83,9.84-17.35,15.48-29.06,36.87-35.39,59.07-12.08,42.25-8.51,89-9.79,132.43-.22,7.76-.66,22.06-.91,41.38-.12,8.58-.15,15.65-.17,20.41H365a106.78,106.78,0,0,0,14.12-212.63v-2.46c3.68-.25,7.2-.52,10.63-.84,3.23-.32,6.33-.66,9.34-1.06,1.5-.22,3-.42,4.41-.64s2.88-.44,4.26-.69,2.76-.47,4.12-.74,2.64-.54,3.92-.84c2.56-.56,5-1.16,7.39-1.82,1.16-.32,2.32-.67,3.43-1s2.21-.72,3.27-1.09,2.1-.73,3.14-1.13c2-.76,3.94-1.6,5.76-2.49s3.53-1.8,5.13-2.76c.79-.47,1.58-1,2.34-1.48,1.5-1,2.88-2.07,4.19-3.15a35.13,35.13,0,0,0,8.21-9.84,29.14,29.14,0,0,0,1.7-3.4c.29-.71.57-1.43.81-2.17,3.94-11.63.47-22.84-5-32,1.25-.27,2.51-.56,3.72-.86l1.23-.29c1.6-.37,3.18-.77,4.71-1.19.79-.2,1.58-.39,2.34-.61,1.13-.3,2.27-.62,3.35-.94s2.15-.62,3.21-1c1.4-.42,2.78-.86,4.11-1.31s2.64-.89,3.9-1.35A217.55,217.55,0,0,1,582.67,542.11Z"/></svg>